<mxfile host="app.diagrams.net" modified="2023-09-29T07:09:08.152Z" agent="Mozilla/5.0 (Macintosh; Intel Mac OS X 10_15_7) AppleWebKit/537.36 (KHTML, like Gecko) Chrome/117.0.0.0 Safari/537.36" etag="3_05kKt231aHPVv3cqgm" version="21.8.2" type="device">
  <diagram name="Page-1" id="TIUcLRtwMlZfU1tctQyf">
    <mxGraphModel dx="363" dy="232" grid="1" gridSize="10" guides="1" tooltips="1" connect="1" arrows="1" fold="1" page="1" pageScale="1" pageWidth="850" pageHeight="1100" math="0" shadow="0">
      <root>
        <mxCell id="0" />
        <mxCell id="1" parent="0" />
        <mxCell id="uyKo9GfU67xnvpkMiXfj-10" style="edgeStyle=orthogonalEdgeStyle;rounded=0;orthogonalLoop=1;jettySize=auto;html=1;exitX=1;exitY=0.5;exitDx=0;exitDy=0;entryX=0;entryY=0.5;entryDx=0;entryDy=0;" edge="1" parent="1" source="uyKo9GfU67xnvpkMiXfj-4" target="uyKo9GfU67xnvpkMiXfj-5">
          <mxGeometry relative="1" as="geometry" />
        </mxCell>
        <mxCell id="uyKo9GfU67xnvpkMiXfj-14" value="0,23" style="edgeLabel;html=1;align=center;verticalAlign=middle;resizable=0;points=[];fontSize=8;" vertex="1" connectable="0" parent="uyKo9GfU67xnvpkMiXfj-10">
          <mxGeometry x="-0.4847" y="1" relative="1" as="geometry">
            <mxPoint x="1" y="1" as="offset" />
          </mxGeometry>
        </mxCell>
        <mxCell id="uyKo9GfU67xnvpkMiXfj-11" style="edgeStyle=orthogonalEdgeStyle;rounded=0;orthogonalLoop=1;jettySize=auto;html=1;exitX=1;exitY=0.75;exitDx=0;exitDy=0;entryX=0;entryY=0.75;entryDx=0;entryDy=0;" edge="1" parent="1" source="uyKo9GfU67xnvpkMiXfj-4" target="uyKo9GfU67xnvpkMiXfj-5">
          <mxGeometry relative="1" as="geometry" />
        </mxCell>
        <mxCell id="uyKo9GfU67xnvpkMiXfj-15" value="0,1" style="edgeLabel;html=1;align=center;verticalAlign=middle;resizable=0;points=[];fontSize=8;" vertex="1" connectable="0" parent="uyKo9GfU67xnvpkMiXfj-11">
          <mxGeometry x="-0.5472" y="-1" relative="1" as="geometry">
            <mxPoint x="2" as="offset" />
          </mxGeometry>
        </mxCell>
        <mxCell id="uyKo9GfU67xnvpkMiXfj-12" style="edgeStyle=orthogonalEdgeStyle;rounded=0;orthogonalLoop=1;jettySize=auto;html=1;exitX=1;exitY=0.25;exitDx=0;exitDy=0;entryX=0;entryY=0.25;entryDx=0;entryDy=0;" edge="1" parent="1" source="uyKo9GfU67xnvpkMiXfj-4" target="uyKo9GfU67xnvpkMiXfj-5">
          <mxGeometry relative="1" as="geometry" />
        </mxCell>
        <mxCell id="uyKo9GfU67xnvpkMiXfj-13" value="0,8" style="edgeLabel;html=1;align=center;verticalAlign=middle;resizable=0;points=[];fontSize=8;" vertex="1" connectable="0" parent="uyKo9GfU67xnvpkMiXfj-12">
          <mxGeometry x="-0.6167" y="1" relative="1" as="geometry">
            <mxPoint x="5" as="offset" />
          </mxGeometry>
        </mxCell>
        <mxCell id="uyKo9GfU67xnvpkMiXfj-4" value="N1" style="rounded=0;whiteSpace=wrap;html=1;" vertex="1" parent="1">
          <mxGeometry x="40" y="40" width="40" height="40" as="geometry" />
        </mxCell>
        <mxCell id="uyKo9GfU67xnvpkMiXfj-5" value="N1" style="rounded=0;whiteSpace=wrap;html=1;" vertex="1" parent="1">
          <mxGeometry x="160" y="40" width="40" height="40" as="geometry" />
        </mxCell>
        <mxCell id="uyKo9GfU67xnvpkMiXfj-6" value="S1" style="ellipse;whiteSpace=wrap;html=1;aspect=fixed;" vertex="1" parent="1">
          <mxGeometry x="280" y="40" width="40" height="40" as="geometry" />
        </mxCell>
        <mxCell id="uyKo9GfU67xnvpkMiXfj-16" style="edgeStyle=orthogonalEdgeStyle;rounded=0;orthogonalLoop=1;jettySize=auto;html=1;exitX=1;exitY=0.25;exitDx=0;exitDy=0;entryX=0.053;entryY=0.259;entryDx=0;entryDy=0;entryPerimeter=0;" edge="1" parent="1" source="uyKo9GfU67xnvpkMiXfj-5" target="uyKo9GfU67xnvpkMiXfj-6">
          <mxGeometry relative="1" as="geometry" />
        </mxCell>
        <mxCell id="uyKo9GfU67xnvpkMiXfj-18" value="0,23" style="edgeLabel;html=1;align=center;verticalAlign=middle;resizable=0;points=[];fontSize=8;" vertex="1" connectable="0" parent="uyKo9GfU67xnvpkMiXfj-16">
          <mxGeometry x="-0.4903" relative="1" as="geometry">
            <mxPoint x="-1" as="offset" />
          </mxGeometry>
        </mxCell>
        <mxCell id="uyKo9GfU67xnvpkMiXfj-17" style="edgeStyle=orthogonalEdgeStyle;rounded=0;orthogonalLoop=1;jettySize=auto;html=1;exitX=1;exitY=0.75;exitDx=0;exitDy=0;entryX=0.047;entryY=0.759;entryDx=0;entryDy=0;entryPerimeter=0;" edge="1" parent="1" source="uyKo9GfU67xnvpkMiXfj-5" target="uyKo9GfU67xnvpkMiXfj-6">
          <mxGeometry relative="1" as="geometry" />
        </mxCell>
        <mxCell id="uyKo9GfU67xnvpkMiXfj-19" value="0,4" style="edgeLabel;html=1;align=center;verticalAlign=middle;resizable=0;points=[];fontSize=8;" vertex="1" connectable="0" parent="uyKo9GfU67xnvpkMiXfj-17">
          <mxGeometry x="-0.4618" relative="1" as="geometry">
            <mxPoint x="-4" as="offset" />
          </mxGeometry>
        </mxCell>
        <mxCell id="uyKo9GfU67xnvpkMiXfj-20" style="edgeStyle=orthogonalEdgeStyle;rounded=0;orthogonalLoop=1;jettySize=auto;html=1;exitX=1;exitY=0.5;exitDx=0;exitDy=0;entryX=0;entryY=0.5;entryDx=0;entryDy=0;" edge="1" parent="1" source="uyKo9GfU67xnvpkMiXfj-26" target="uyKo9GfU67xnvpkMiXfj-27">
          <mxGeometry relative="1" as="geometry" />
        </mxCell>
        <mxCell id="uyKo9GfU67xnvpkMiXfj-34" value="0,14" style="edgeLabel;html=1;align=center;verticalAlign=middle;resizable=0;points=[];fontSize=8;" vertex="1" connectable="0" parent="uyKo9GfU67xnvpkMiXfj-20">
          <mxGeometry x="-0.1132" y="-1" relative="1" as="geometry">
            <mxPoint x="-16" y="-1" as="offset" />
          </mxGeometry>
        </mxCell>
        <mxCell id="uyKo9GfU67xnvpkMiXfj-26" value="N1" style="rounded=0;whiteSpace=wrap;html=1;" vertex="1" parent="1">
          <mxGeometry x="40" y="120" width="40" height="40" as="geometry" />
        </mxCell>
        <mxCell id="uyKo9GfU67xnvpkMiXfj-33" style="edgeStyle=orthogonalEdgeStyle;rounded=0;orthogonalLoop=1;jettySize=auto;html=1;exitX=1;exitY=0.5;exitDx=0;exitDy=0;entryX=0;entryY=0.5;entryDx=0;entryDy=0;" edge="1" parent="1" source="uyKo9GfU67xnvpkMiXfj-27" target="uyKo9GfU67xnvpkMiXfj-28">
          <mxGeometry relative="1" as="geometry" />
        </mxCell>
        <mxCell id="uyKo9GfU67xnvpkMiXfj-36" value="0,46" style="edgeLabel;html=1;align=center;verticalAlign=middle;resizable=0;points=[];fontSize=8;" vertex="1" connectable="0" parent="uyKo9GfU67xnvpkMiXfj-33">
          <mxGeometry x="-0.6132" y="-1" relative="1" as="geometry">
            <mxPoint x="4" y="-1" as="offset" />
          </mxGeometry>
        </mxCell>
        <mxCell id="uyKo9GfU67xnvpkMiXfj-27" value="N1" style="rounded=0;whiteSpace=wrap;html=1;" vertex="1" parent="1">
          <mxGeometry x="160" y="120" width="40" height="40" as="geometry" />
        </mxCell>
        <mxCell id="uyKo9GfU67xnvpkMiXfj-28" value="S1" style="ellipse;whiteSpace=wrap;html=1;aspect=fixed;" vertex="1" parent="1">
          <mxGeometry x="280" y="120" width="40" height="40" as="geometry" />
        </mxCell>
      </root>
    </mxGraphModel>
  </diagram>
</mxfile>
